<svg width="114" height="111" viewBox="0 0 114 111" fill="none" xmlns="http://www.w3.org/2000/svg">
<path fill-rule="evenodd" clip-rule="evenodd" d="M97.9054 100.505C75.3227 114.498 38.5775 114.498 15.9948 100.505C8.32875 95.7547 3.1643 89.8334 1.0633 83.517C4.02191 86.813 7.69159 89.8509 12.0119 92.5272C24.4014 100.203 40.6758 104.04 56.9501 104.04C73.2244 104.04 89.4987 100.201 101.888 92.5272C106.209 89.8496 109.878 86.813 112.838 83.517C110.737 89.8321 105.574 95.7547 97.9054 100.505ZM16.0136 10.4942C27.3036 3.49763 42.1369 0 56.9676 0C71.7982 0 86.6316 3.49763 97.9229 10.4942C111.717 19.0407 117.038 30.8791 112.157 42.1638C109.72 47.7947 104.799 53.0223 97.9229 57.2821C75.3402 71.2753 38.5949 71.2753 16.0136 57.2821C9.16216 53.0371 4.24908 47.8296 1.80396 42.2229C-3.12525 30.9222 2.18841 19.0595 16.0136 10.4942ZM1.03911 54.6367C3.12397 60.976 8.29918 66.9227 15.9961 71.6907C38.5788 85.6812 75.3227 85.6812 97.9054 71.6907C105.573 66.9402 110.739 61.0203 112.84 54.7052C109.87 58.0053 106.209 61.0459 101.907 63.7114C89.5189 71.3869 73.2406 75.2273 56.9689 75.2273C40.6919 75.2273 24.4203 71.3882 12.0307 63.7114C7.69831 61.0284 4.01787 57.9636 1.03911 54.6367ZM12.0105 78.1187C7.68756 75.4397 4.01787 72.399 1.05658 69.1017C3.15489 75.4208 8.32203 81.3448 15.9934 86.0979C38.5761 100.09 75.32 100.09 97.9027 86.0979C105.575 81.3448 110.743 75.4208 112.841 69.1017C109.882 72.4004 106.211 75.441 101.887 78.1187C89.4974 85.7941 73.2231 89.6345 56.9488 89.6345C40.6744 89.6345 24.3988 85.7941 12.0105 78.1187ZM48.2114 32.8713L35.4602 40.2335L46.5083 46.6131C50.1874 48.7383 57.2781 48.3673 61.6804 45.8281C63.8432 44.5793 64.4145 43.3722 64.4145 42.9098C64.4145 42.4891 63.8876 41.9245 63.0407 41.4352L48.2114 32.8713ZM68.5251 21.143L55.7726 28.5053L66.8206 34.8835L66.822 34.8849C70.5011 37.0087 77.5904 36.6418 81.994 34.0985C84.1569 32.8498 84.7282 31.644 84.7282 31.1803C84.7282 30.7609 84.2026 30.1963 83.3557 29.7057L68.5251 21.143ZM18.7074 39.2925L20.3352 40.2321L20.3339 40.2335L25.5964 43.2701L21.1673 45.8267C19.358 46.8712 18.7383 49.1832 19.7827 50.9912C20.8272 52.8005 23.1392 53.4202 24.9472 52.3744L32.6925 47.9035C32.8444 47.8162 32.9869 47.7194 33.1227 47.6159L36.1834 49.3835L31.7543 51.9402C29.945 52.9847 29.3266 55.2967 30.3711 57.1047C31.0714 58.3171 32.3417 58.996 33.6496 58.996C34.2908 58.996 34.9414 58.832 35.5369 58.4892L43.2822 54.017C43.4489 53.9216 43.6048 53.814 43.7513 53.6971C49.8083 56.5697 59.0766 56.0602 65.4603 52.3744C69.2644 50.1793 71.5778 47.0863 71.93 43.7849C76.6764 44.004 81.7897 42.9461 85.7753 40.6448C89.9155 38.2548 92.2907 34.8042 92.2907 31.1776C92.2907 29.5242 91.7906 27.9461 90.8604 26.5481L95.2278 24.0264C97.0371 22.9819 97.6554 20.6685 96.611 18.8619C95.5665 17.0526 93.2558 16.4343 91.4465 17.4787L84.5359 21.4683C84.4822 21.4993 84.4311 21.5302 84.3813 21.5624L81.3502 19.8123L84.6394 17.9129C86.4487 16.8685 87.0684 14.5578 86.024 12.7498C84.9795 10.9405 82.6688 10.3208 80.8595 11.3653L73.949 15.3549C73.8952 15.3845 73.8441 15.4167 73.793 15.449L70.4258 13.5053C70.4231 13.5039 70.4218 13.5026 70.4191 13.5012L63.1187 9.28713C61.3121 8.24268 58.9987 8.86102 57.9542 10.6703C56.9098 12.4796 57.5308 14.793 59.3401 15.8348L60.9666 16.7744L51.6136 22.1741C51.6096 22.1767 51.6069 22.1781 51.6015 22.1808L46.3241 25.2281L46.3201 25.2308L27.9031 35.8648L22.494 32.7422C20.6861 31.6964 18.3754 32.3188 17.3296 34.1254C16.2784 35.9361 16.8981 38.2494 18.7074 39.2925Z" fill="#FFB26B"/>
</svg>
