<svg width="282" height="227" viewBox="0 0 282 227" fill="none" xmlns="http://www.w3.org/2000/svg">
<path fill-rule="evenodd" clip-rule="evenodd" d="M181.905 100.505C159.323 114.498 122.577 114.498 99.9948 100.505C92.3287 95.7547 87.1643 89.8334 85.0633 83.517C88.0219 86.813 91.6916 89.8509 96.0119 92.5272C108.401 100.203 124.676 104.04 140.95 104.04C157.224 104.04 173.499 100.201 185.888 92.5272C190.209 89.8496 193.878 86.813 196.838 83.517C194.737 89.8321 189.574 95.7547 181.905 100.505ZM100.014 10.4942C111.304 3.49763 126.137 0 140.968 0C155.798 0 170.632 3.49763 181.923 10.4942C195.717 19.0407 201.038 30.8791 196.157 42.1638C193.72 47.7947 188.799 53.0223 181.923 57.2821C159.34 71.2753 122.595 71.2753 100.014 57.2821C93.1622 53.0371 88.2491 47.8296 85.804 42.2229C80.8748 30.9222 86.1884 19.0595 100.014 10.4942ZM85.0391 54.6367C87.124 60.976 92.2992 66.9227 99.9961 71.6907C122.579 85.6812 159.323 85.6812 181.905 71.6907C189.573 66.9402 194.739 61.0203 196.84 54.7052C193.87 58.0053 190.209 61.0459 185.907 63.7114C173.519 71.3869 157.241 75.2273 140.969 75.2273C124.692 75.2273 108.42 71.3882 96.0307 63.7114C91.6983 61.0284 88.0179 57.9636 85.0391 54.6367ZM96.0105 78.1187C91.6876 75.4397 88.0179 72.399 85.0566 69.1017C87.1549 75.4208 92.322 81.3448 99.9934 86.0979C122.576 100.09 159.32 100.09 181.903 86.0979C189.575 81.3448 194.743 75.4208 196.841 69.1017C193.882 72.4004 190.211 75.441 185.887 78.1187C173.497 85.7941 157.223 89.6345 140.949 89.6345C124.674 89.6345 108.399 85.7941 96.0105 78.1187ZM132.211 32.8713L119.46 40.2335L130.508 46.6131C134.187 48.7383 141.278 48.3673 145.68 45.8281C147.843 44.5793 148.414 43.3722 148.414 42.9098C148.414 42.4891 147.888 41.9245 147.041 41.4352L132.211 32.8713ZM152.525 21.143L139.773 28.5053L150.821 34.8835L150.822 34.8849C154.501 37.0087 161.59 36.6418 165.994 34.0985C168.157 32.8498 168.728 31.644 168.728 31.1803C168.728 30.7609 168.203 30.1963 167.356 29.7057L152.525 21.143ZM102.707 39.2925L104.335 40.2321L104.334 40.2335L109.596 43.2701L105.167 45.8267C103.358 46.8712 102.738 49.1832 103.783 50.9912C104.827 52.8005 107.139 53.4202 108.947 52.3744L116.693 47.9035C116.844 47.8162 116.987 47.7194 117.123 47.6159L120.183 49.3835L115.754 51.9402C113.945 52.9846 113.327 55.2967 114.371 57.1047C115.071 58.3171 116.342 58.9959 117.65 58.9959C118.291 58.9959 118.941 58.832 119.537 58.4892L127.282 54.017C127.449 53.9216 127.605 53.814 127.751 53.6971C133.808 56.5697 143.077 56.0602 149.46 52.3744C153.264 50.1793 155.578 47.0863 155.93 43.7849C160.676 44.004 165.79 42.9461 169.775 40.6448C173.915 38.2548 176.291 34.8042 176.291 31.1776C176.291 29.5242 175.791 27.9461 174.86 26.5481L179.228 24.0264C181.037 22.9819 181.655 20.6685 180.611 18.8619C179.566 17.0526 177.256 16.4343 175.447 17.4787L168.536 21.4683C168.482 21.4993 168.431 21.5302 168.381 21.5624L165.35 19.8123L168.639 17.9129C170.449 16.8685 171.068 14.5578 170.024 12.7498C168.98 10.9405 166.669 10.3208 164.86 11.3653L157.949 15.3549C157.895 15.3845 157.844 15.4167 157.793 15.449L154.426 13.5053C154.423 13.5039 154.422 13.5026 154.419 13.5012L147.119 9.28713C145.312 8.24268 142.999 8.86102 141.954 10.6703C140.91 12.4796 141.531 14.793 143.34 15.8348L144.967 16.7744L135.614 22.1741C135.61 22.1767 135.607 22.1781 135.601 22.1808L130.324 25.2281L130.32 25.2308L111.903 35.8648L106.494 32.7422C104.686 31.6964 102.375 32.3188 101.33 34.1254C100.278 35.9361 100.898 38.2494 102.707 39.2925Z" fill="#FFB26B"/>
<path d="M29.8827 182.443C20.1521 182.443 12.739 179.737 7.64341 174.324C2.5478 168.912 0 161.226 0 151.265C0 146.313 0.777296 141.894 2.33189 138.007C3.88648 134.121 6.01685 130.839 8.72299 128.162C11.4291 125.484 14.6535 123.455 18.396 122.073C22.1386 120.691 26.1978 120 30.5737 120C33.1071 120 35.4102 120.187 37.483 120.561C39.5557 120.936 41.3694 121.367 42.924 121.857C44.4786 122.346 45.7741 122.85 46.8105 123.368C47.8469 123.886 48.5954 124.29 49.056 124.577L45.1696 135.46C43.3271 134.481 41.1823 133.646 38.7353 132.955C36.2882 132.264 33.5101 131.919 30.4009 131.919C28.3281 131.919 26.2985 132.264 24.3121 132.955C22.3257 133.646 20.5696 134.754 19.0438 136.28C17.518 137.806 16.2944 139.778 15.3732 142.196C14.452 144.614 13.9913 147.551 13.9913 151.005C13.9913 153.769 14.2936 156.346 14.8982 158.735C15.5027 161.125 16.4816 163.183 17.8346 164.91C19.1877 166.638 20.9582 168.005 23.1462 169.013C25.3341 170.02 27.9827 170.524 31.0919 170.524C33.0495 170.524 34.8056 170.409 36.3602 170.179C37.9148 169.948 39.2966 169.675 40.5058 169.358C41.7149 169.042 42.7801 168.682 43.7013 168.279C44.6226 167.876 45.4574 167.501 46.2059 167.156L49.9197 177.952C48.0196 179.103 45.3423 180.14 41.8876 181.061C38.433 181.982 34.4314 182.443 29.8827 182.443ZM94.6574 121.382H108.131V181.234H94.6574V155.842H72.0295V181.234H58.5563V121.382H72.0295V144.269H94.6574V121.382ZM121.949 181.234V121.382H162.369V132.696H135.422V144.442H159.346V155.497H135.422V169.92H164.355V181.234H121.949ZM201.579 182.443C191.848 182.443 184.435 179.737 179.34 174.324C174.244 168.912 171.696 161.226 171.696 151.265C171.696 146.313 172.473 141.894 174.028 138.007C175.583 134.121 177.713 130.839 180.419 128.162C183.125 125.484 186.35 123.455 190.092 122.073C193.835 120.691 197.894 120 202.27 120C204.803 120 207.106 120.187 209.179 120.561C211.252 120.936 213.066 121.367 214.62 121.857C216.175 122.346 217.47 122.85 218.507 123.368C219.543 123.886 220.292 124.29 220.752 124.577L216.866 135.46C215.023 134.481 212.878 133.646 210.431 132.955C207.984 132.264 205.206 131.919 202.097 131.919C200.024 131.919 197.995 132.264 196.008 132.955C194.022 133.646 192.266 134.754 190.74 136.28C189.214 137.806 187.991 139.778 187.069 142.196C186.148 144.614 185.687 147.551 185.687 151.005C185.687 153.769 185.99 156.346 186.594 158.735C187.199 161.125 188.178 163.183 189.531 164.91C190.884 166.638 192.654 168.005 194.842 169.013C197.03 170.02 199.679 170.524 202.788 170.524C204.746 170.524 206.502 170.409 208.056 170.179C209.611 169.948 210.993 169.675 212.202 169.358C213.411 169.042 214.476 168.682 215.397 168.279C216.319 167.876 217.154 167.501 217.902 167.156L221.616 177.952C219.716 179.103 217.038 180.14 213.584 181.061C210.129 181.982 206.127 182.443 201.579 182.443ZM265.576 181.234C264.367 179.276 262.942 177.16 261.301 174.886C259.66 172.611 257.875 170.337 255.946 168.063C254.018 165.789 252.017 163.601 249.944 161.499C247.871 159.397 245.798 157.541 243.726 155.928V181.234H230.252V121.382H243.726V144.01C247.238 140.325 250.764 136.482 254.305 132.48C257.846 128.478 261.143 124.779 264.194 121.382H280.172C276.084 126.218 271.982 130.882 267.865 135.373C263.748 139.864 259.415 144.384 254.867 148.933C259.646 152.906 264.266 157.627 268.729 163.097C273.191 168.567 277.466 174.612 281.554 181.234H265.576Z" fill="white"/>
<path d="M16.2597 205.667C17.6435 203.327 18.9614 200.988 20.2134 198.649C21.4654 196.31 22.6186 193.954 23.6729 191.582H32.1734C30.2953 195.272 28.3514 198.846 26.3416 202.306C24.3318 205.765 22.2067 209.241 19.9663 212.734V225.831H12.2565V212.833C10.0161 209.34 7.88272 205.848 5.85644 202.355C3.83016 198.863 1.87802 195.272 0 191.582H8.94528C9.99961 193.954 11.1363 196.31 12.3554 198.649C13.5744 200.988 14.8759 203.327 16.2597 205.667ZM42.8484 208.681C42.8484 210.362 43.0543 211.877 43.4662 213.228C43.878 214.579 44.4711 215.74 45.2453 216.712C46.0196 217.684 46.9669 218.434 48.0871 218.961C49.2073 219.488 50.4923 219.752 51.9419 219.752C53.3587 219.752 54.6354 219.488 55.7721 218.961C56.9088 218.434 57.8643 217.684 58.6386 216.712C59.4128 215.74 60.0059 214.579 60.4177 213.228C60.8296 211.877 61.0355 210.362 61.0355 208.681C61.0355 207.001 60.8296 205.477 60.4177 204.11C60.0059 202.743 59.4128 201.573 58.6386 200.601C57.8643 199.629 56.9088 198.879 55.7721 198.352C54.6354 197.825 53.3587 197.562 51.9419 197.562C50.4923 197.562 49.2073 197.833 48.0871 198.377C46.9669 198.921 46.0196 199.678 45.2453 200.65C44.4711 201.622 43.878 202.792 43.4662 204.159C43.0543 205.527 42.8484 207.034 42.8484 208.681ZM68.9923 208.681C68.9923 211.614 68.5558 214.192 67.6827 216.416C66.8096 218.64 65.6152 220.501 64.0996 222C62.584 223.5 60.7802 224.628 58.688 225.386C56.5958 226.144 54.3471 226.522 51.9419 226.522C49.6027 226.522 47.3952 226.144 45.3195 225.386C43.2438 224.628 41.4317 223.5 39.8831 222C38.3346 220.501 37.1155 218.64 36.2259 216.416C35.3363 214.192 34.8915 211.614 34.8915 208.681C34.8915 205.749 35.3528 203.171 36.2753 200.947C37.1979 198.723 38.4417 196.853 40.0067 195.338C41.5717 193.822 43.3838 192.685 45.443 191.927C47.5023 191.17 49.6686 190.791 51.9419 190.791C54.2812 190.791 56.4887 191.17 58.5644 191.927C60.6401 192.685 62.4522 193.822 64.0008 195.338C65.5493 196.853 66.7684 198.723 67.658 200.947C68.5476 203.171 68.9923 205.749 68.9923 208.681ZM88.8104 226.522C86.4052 226.522 84.3295 226.185 82.5833 225.509C80.837 224.834 79.3956 223.895 78.2589 222.692C77.1222 221.49 76.282 220.057 75.7384 218.393C75.1947 216.729 74.9229 214.892 74.9229 212.882V191.582H82.6327V212.24C82.6327 213.623 82.7892 214.801 83.1022 215.773C83.4152 216.745 83.8435 217.536 84.3871 218.146C84.9308 218.755 85.5897 219.192 86.364 219.455C87.1383 219.719 87.9867 219.851 88.9092 219.851C90.7872 219.851 92.311 219.274 93.4807 218.121C94.6503 216.968 95.2351 215.007 95.2351 212.24V191.582H102.945V212.882C102.945 214.892 102.665 216.737 102.105 218.417C101.545 220.098 100.688 221.539 99.5348 222.742C98.3816 223.944 96.9155 224.875 95.1363 225.534C93.3571 226.193 91.2485 226.522 88.8104 226.522ZM120.391 191.186C125.53 191.186 129.468 192.1 132.202 193.929C134.937 195.758 136.304 198.599 136.304 202.454C136.304 204.859 135.753 206.812 134.649 208.311C133.545 209.81 131.955 210.988 129.88 211.844C130.571 212.701 131.296 213.681 132.054 214.785C132.812 215.889 133.561 217.042 134.303 218.244C135.044 219.447 135.761 220.699 136.453 222C137.145 223.302 137.787 224.579 138.38 225.831H129.731C129.105 224.71 128.471 223.574 127.829 222.421C127.186 221.267 126.527 220.147 125.852 219.06C125.176 217.973 124.509 216.943 123.85 215.971C123.191 214.999 122.532 214.118 121.873 213.327H118.068V225.831H110.358V192.076C112.038 191.746 113.776 191.516 115.572 191.384C117.368 191.252 118.974 191.186 120.391 191.186ZM120.835 197.759C120.275 197.759 119.773 197.776 119.328 197.809C118.883 197.842 118.463 197.875 118.068 197.907V207.199H120.242C123.142 207.199 125.217 206.836 126.469 206.111C127.722 205.387 128.348 204.151 128.348 202.405C128.348 200.724 127.713 199.53 126.445 198.822C125.176 198.113 123.307 197.759 120.835 197.759ZM166.6 226.275C164.722 226.275 162.852 226.218 160.99 226.102C159.129 225.987 157.193 225.715 155.183 225.287V192.076C156.765 191.779 158.495 191.557 160.373 191.409C162.251 191.26 163.997 191.186 165.611 191.186C167.786 191.186 169.787 191.343 171.616 191.656C173.445 191.969 175.018 192.504 176.336 193.262C177.654 194.02 178.683 195.016 179.425 196.252C180.166 197.487 180.537 199.011 180.537 200.823C180.537 203.558 179.219 205.716 176.583 207.298C178.757 208.121 180.24 209.241 181.031 210.658C181.822 212.075 182.217 213.673 182.217 215.452C182.217 219.043 180.907 221.745 178.288 223.557C175.669 225.369 171.772 226.275 166.6 226.275ZM162.695 210.905V219.752C163.256 219.818 163.865 219.867 164.524 219.9C165.183 219.933 165.908 219.949 166.699 219.949C169.005 219.949 170.866 219.62 172.283 218.961C173.7 218.302 174.408 217.083 174.408 215.304C174.408 213.722 173.815 212.594 172.629 211.918C171.443 211.243 169.746 210.905 167.539 210.905H162.695ZM162.695 205.024H166.451C168.824 205.024 170.52 204.719 171.542 204.11C172.563 203.5 173.074 202.52 173.074 201.169C173.074 199.785 172.547 198.814 171.492 198.253C170.438 197.693 168.89 197.413 166.847 197.413C166.188 197.413 165.48 197.421 164.722 197.438C163.964 197.454 163.288 197.496 162.695 197.562V205.024ZM211.326 225.831C210.964 224.644 210.56 223.425 210.115 222.173C209.671 220.921 209.234 219.669 208.806 218.417H195.462C195.034 219.669 194.597 220.921 194.152 222.173C193.707 223.425 193.304 224.644 192.941 225.831H184.935C186.22 222.14 187.439 218.73 188.592 215.6C189.745 212.47 190.874 209.522 191.978 206.754C193.081 203.986 194.169 201.359 195.239 198.871C196.31 196.384 197.422 193.954 198.575 191.582H205.939C207.059 193.954 208.163 196.384 209.25 198.871C210.338 201.359 211.433 203.986 212.537 206.754C213.641 209.522 214.769 212.47 215.922 215.6C217.076 218.73 218.295 222.14 219.58 225.831H211.326ZM202.084 199.341C201.92 199.835 201.672 200.51 201.343 201.367C201.014 202.224 200.635 203.212 200.206 204.332C199.778 205.452 199.309 206.688 198.798 208.039C198.287 209.39 197.768 210.806 197.241 212.289H206.977C206.45 210.806 205.939 209.39 205.445 208.039C204.951 206.688 204.481 205.452 204.036 204.332C203.592 203.212 203.205 202.224 202.875 201.367C202.546 200.51 202.282 199.835 202.084 199.341ZM240.732 197.512C237.141 197.512 234.546 198.509 232.948 200.502C231.35 202.495 230.551 205.222 230.551 208.681C230.551 210.362 230.749 211.885 231.144 213.253C231.54 214.62 232.133 215.798 232.923 216.786C233.714 217.775 234.702 218.541 235.889 219.085C237.075 219.628 238.459 219.9 240.04 219.9C240.897 219.9 241.63 219.884 242.239 219.851C242.849 219.818 243.384 219.752 243.845 219.653V207.742H251.555V224.694C250.633 225.056 249.15 225.443 247.107 225.855C245.065 226.267 242.544 226.473 239.546 226.473C236.976 226.473 234.645 226.078 232.553 225.287C230.46 224.496 228.673 223.343 227.19 221.827C225.708 220.312 224.563 218.45 223.756 216.243C222.948 214.035 222.545 211.515 222.545 208.681C222.545 205.815 222.99 203.278 223.879 201.07C224.769 198.863 225.988 196.993 227.536 195.461C229.085 193.929 230.905 192.768 232.997 191.977C235.09 191.186 237.322 190.791 239.694 190.791C241.308 190.791 242.766 190.898 244.068 191.112C245.369 191.326 246.49 191.573 247.429 191.853C248.368 192.133 249.142 192.422 249.751 192.718C250.361 193.015 250.797 193.245 251.061 193.41L248.837 199.588C247.783 199.028 246.572 198.542 245.205 198.13C243.837 197.718 242.346 197.512 240.732 197.512ZM268.062 219.949C269.149 219.949 270.047 219.859 270.755 219.678C271.464 219.496 272.032 219.249 272.46 218.936C272.889 218.623 273.185 218.253 273.35 217.824C273.515 217.396 273.597 216.918 273.597 216.391C273.597 215.271 273.07 214.34 272.016 213.599C270.961 212.857 269.149 212.058 266.579 211.202C265.459 210.806 264.339 210.353 263.219 209.843C262.098 209.332 261.094 208.69 260.204 207.915C259.314 207.141 258.59 206.202 258.029 205.098C257.469 203.995 257.189 202.652 257.189 201.07C257.189 199.489 257.486 198.064 258.079 196.795C258.672 195.527 259.512 194.448 260.599 193.558C261.687 192.669 263.005 191.985 264.553 191.507C266.102 191.03 267.848 190.791 269.792 190.791C272.098 190.791 274.091 191.038 275.772 191.532C277.452 192.026 278.836 192.57 279.923 193.163L277.699 199.242C276.744 198.748 275.681 198.311 274.511 197.932C273.342 197.553 271.933 197.364 270.286 197.364C268.441 197.364 267.115 197.619 266.308 198.13C265.5 198.641 265.097 199.423 265.097 200.477C265.097 201.103 265.245 201.631 265.541 202.059C265.838 202.487 266.258 202.874 266.802 203.22C267.345 203.566 267.971 203.879 268.68 204.159C269.388 204.439 270.171 204.728 271.027 205.024C272.806 205.683 274.355 206.334 275.673 206.976C276.991 207.619 278.086 208.368 278.959 209.225C279.833 210.082 280.483 211.087 280.912 212.24C281.34 213.393 281.554 214.793 281.554 216.441C281.554 219.636 280.434 222.116 278.193 223.878C275.953 225.641 272.576 226.522 268.062 226.522C266.546 226.522 265.179 226.432 263.96 226.251C262.741 226.069 261.662 225.847 260.723 225.583C259.784 225.32 258.977 225.04 258.301 224.743C257.626 224.447 257.057 224.167 256.596 223.903L258.771 217.775C259.792 218.335 261.052 218.837 262.551 219.282C264.051 219.727 265.887 219.949 268.062 219.949Z" fill="white"/>
</svg>
