<svg width="406" height="111" viewBox="0 0 406 111" fill="none" xmlns="http://www.w3.org/2000/svg">
<path fill-rule="evenodd" clip-rule="evenodd" d="M97.9054 100.505C75.3227 114.498 38.5775 114.498 15.9948 100.505C8.32875 95.7547 3.1643 89.8334 1.0633 83.517C4.02191 86.813 7.69159 89.8509 12.0119 92.5272C24.4014 100.203 40.6758 104.04 56.9501 104.04C73.2244 104.04 89.4987 100.201 101.888 92.5272C106.209 89.8496 109.878 86.813 112.838 83.517C110.737 89.8321 105.574 95.7547 97.9054 100.505ZM16.0136 10.4942C27.3036 3.49763 42.1369 0 56.9676 0C71.7982 0 86.6316 3.49763 97.9229 10.4942C111.717 19.0407 117.038 30.8791 112.157 42.1638C109.72 47.7947 104.799 53.0223 97.9229 57.2821C75.3402 71.2753 38.5949 71.2753 16.0136 57.2821C9.16216 53.0371 4.24908 47.8296 1.80396 42.2229C-3.12525 30.9222 2.18841 19.0595 16.0136 10.4942ZM1.03911 54.6367C3.12397 60.976 8.29918 66.9227 15.9961 71.6907C38.5788 85.6812 75.3227 85.6812 97.9054 71.6907C105.573 66.9402 110.739 61.0203 112.84 54.7052C109.87 58.0053 106.209 61.0459 101.907 63.7114C89.5189 71.3869 73.2406 75.2273 56.9689 75.2273C40.6919 75.2273 24.4203 71.3882 12.0307 63.7114C7.69831 61.0284 4.01787 57.9636 1.03911 54.6367ZM12.0105 78.1187C7.68756 75.4397 4.01787 72.399 1.05658 69.1017C3.15489 75.4208 8.32203 81.3448 15.9934 86.0979C38.5761 100.09 75.32 100.09 97.9027 86.0979C105.575 81.3448 110.743 75.4208 112.841 69.1017C109.882 72.4004 106.211 75.441 101.887 78.1187C89.4974 85.7941 73.2231 89.6345 56.9488 89.6345C40.6744 89.6345 24.3988 85.7941 12.0105 78.1187ZM48.2114 32.8713L35.4602 40.2335L46.5083 46.6131C50.1874 48.7383 57.2781 48.3673 61.6804 45.8281C63.8432 44.5793 64.4145 43.3722 64.4145 42.9098C64.4145 42.4891 63.8876 41.9245 63.0407 41.4352L48.2114 32.8713ZM68.5251 21.143L55.7726 28.5053L66.8206 34.8835L66.822 34.8849C70.5011 37.0087 77.5904 36.6418 81.994 34.0985C84.1569 32.8498 84.7282 31.644 84.7282 31.1803C84.7282 30.7609 84.2026 30.1963 83.3557 29.7057L68.5251 21.143ZM18.7074 39.2925L20.3352 40.2321L20.3339 40.2335L25.5964 43.2701L21.1673 45.8267C19.358 46.8712 18.7383 49.1832 19.7827 50.9912C20.8272 52.8005 23.1392 53.4202 24.9472 52.3744L32.6925 47.9035C32.8444 47.8162 32.9869 47.7194 33.1227 47.6159L36.1834 49.3835L31.7543 51.9402C29.945 52.9847 29.3266 55.2967 30.3711 57.1047C31.0714 58.3171 32.3417 58.996 33.6496 58.996C34.2908 58.996 34.9414 58.832 35.5369 58.4892L43.2822 54.017C43.4489 53.9216 43.6048 53.814 43.7513 53.6971C49.8083 56.5697 59.0766 56.0602 65.4603 52.3744C69.2644 50.1793 71.5778 47.0863 71.93 43.7849C76.6764 44.004 81.7897 42.9461 85.7753 40.6448C89.9155 38.2548 92.2907 34.8042 92.2907 31.1776C92.2907 29.5242 91.7906 27.9461 90.8604 26.5481L95.2278 24.0264C97.0371 22.9819 97.6554 20.6685 96.611 18.8619C95.5665 17.0526 93.2558 16.4343 91.4465 17.4787L84.5359 21.4683C84.4822 21.4993 84.4311 21.5302 84.3813 21.5624L81.3502 19.8123L84.6394 17.9129C86.4487 16.8685 87.0684 14.5578 86.024 12.7498C84.9795 10.9405 82.6688 10.3208 80.8595 11.3653L73.949 15.3549C73.8952 15.3845 73.8441 15.4167 73.793 15.449L70.4258 13.5053C70.4231 13.5039 70.4218 13.5026 70.4191 13.5012L63.1187 9.28713C61.3121 8.24268 58.9987 8.86102 57.9542 10.6703C56.9098 12.4796 57.5308 14.793 59.3401 15.8348L60.9666 16.7744L51.6136 22.1741C51.6096 22.1767 51.6069 22.1781 51.6015 22.1808L46.3241 25.2281L46.3201 25.2308L27.9031 35.8648L22.494 32.7422C20.6861 31.6964 18.3754 32.3188 17.3296 34.1254C16.2784 35.9361 16.8981 38.2494 18.7074 39.2925Z" fill="#FFB26B"/>
<path d="M153.883 62.4428C144.152 62.4428 136.739 59.7367 131.643 54.3244C126.548 48.9121 124 41.2255 124 31.2646C124 26.3129 124.777 21.8938 126.332 18.0074C127.886 14.1209 130.017 10.839 132.723 8.16161C135.429 5.48426 138.653 3.45465 142.396 2.07279C146.139 0.69093 150.198 0 154.574 0C157.107 0 159.41 0.187125 161.483 0.561379C163.556 0.935633 165.369 1.36747 166.924 1.85687C168.479 2.34628 169.774 2.85009 170.811 3.36828C171.847 3.88648 172.595 4.28952 173.056 4.57741L169.17 15.4596C167.327 14.4807 165.182 13.6459 162.735 12.9549C160.288 12.264 157.51 11.9185 154.401 11.9185C152.328 11.9185 150.299 12.264 148.312 12.9549C146.326 13.6459 144.57 14.7542 143.044 16.28C141.518 17.8058 140.294 19.7779 139.373 22.1961C138.452 24.6144 137.991 27.5508 137.991 31.0055C137.991 33.7692 138.294 36.3458 138.898 38.7353C139.503 41.1247 140.482 43.1831 141.835 44.9105C143.188 46.6378 144.958 48.0053 147.146 49.0129C149.334 50.0205 151.983 50.5243 155.092 50.5243C157.049 50.5243 158.806 50.4091 160.36 50.1788C161.915 49.9485 163.297 49.675 164.506 49.3583C165.715 49.0416 166.78 48.6818 167.701 48.2787C168.623 47.8757 169.457 47.5014 170.206 47.156L173.92 57.9518C172.02 59.1033 169.342 60.1397 165.888 61.061C162.433 61.9822 158.431 62.4428 153.883 62.4428ZM218.657 1.38186H232.131V61.2337H218.657V35.842H196.029V61.2337H182.556V1.38186H196.029V24.2689H218.657V1.38186ZM245.949 61.2337V1.38186H286.369V12.6958H259.422V24.4417H283.346V35.4965H259.422V49.9197H288.355V61.2337H245.949ZM325.579 62.4428C315.848 62.4428 308.435 59.7367 303.34 54.3244C298.244 48.9121 295.696 41.2255 295.696 31.2646C295.696 26.3129 296.473 21.8938 298.028 18.0074C299.583 14.1209 301.713 10.839 304.419 8.16161C307.125 5.48426 310.35 3.45465 314.092 2.07279C317.835 0.69093 321.894 0 326.27 0C328.803 0 331.106 0.187125 333.179 0.561379C335.252 0.935633 337.066 1.36747 338.62 1.85687C340.175 2.34628 341.47 2.85009 342.507 3.36828C343.543 3.88648 344.292 4.28952 344.752 4.57741L340.866 15.4596C339.023 14.4807 336.878 13.6459 334.431 12.9549C331.984 12.264 329.206 11.9185 326.097 11.9185C324.024 11.9185 321.995 12.264 320.008 12.9549C318.022 13.6459 316.266 14.7542 314.74 16.28C313.214 17.8058 311.991 19.7779 311.069 22.1961C310.148 24.6144 309.687 27.5508 309.687 31.0055C309.687 33.7692 309.99 36.3458 310.594 38.7353C311.199 41.1247 312.178 43.1831 313.531 44.9105C314.884 46.6378 316.654 48.0053 318.842 49.0129C321.03 50.0205 323.679 50.5243 326.788 50.5243C328.746 50.5243 330.502 50.4091 332.056 50.1788C333.611 49.9485 334.993 49.675 336.202 49.3583C337.411 49.0416 338.476 48.6818 339.397 48.2787C340.319 47.8757 341.154 47.5014 341.902 47.156L345.616 57.9518C343.716 59.1033 341.038 60.1397 337.584 61.061C334.129 61.9822 330.127 62.4428 325.579 62.4428ZM389.576 61.2337C388.367 59.2761 386.942 57.1601 385.301 54.8858C383.66 52.6115 381.875 50.3371 379.946 48.0628C378.018 45.7885 376.017 43.6006 373.944 41.499C371.871 39.3974 369.798 37.5405 367.726 35.9284V61.2337H354.252V1.38186H367.726V24.0098C371.238 20.3249 374.764 16.4816 378.305 12.4799C381.846 8.47829 385.143 4.77893 388.194 1.38186H404.172C400.084 6.21837 395.982 10.8822 391.865 15.3732C387.748 19.8642 383.415 24.3841 378.867 28.9327C383.646 32.9056 388.266 37.6269 392.729 43.0968C397.191 48.5666 401.466 54.6123 405.554 61.2337H389.576Z" fill="white"/>
<path d="M140.26 85.6666C141.643 83.3273 142.961 80.9881 144.213 78.6488C145.465 76.3095 146.619 73.9537 147.673 71.5815H156.173C154.295 75.2716 152.351 78.8465 150.342 82.306C148.332 85.7655 146.207 89.2414 143.966 92.7339V105.831H136.257V92.8327C134.016 89.3403 131.883 85.8478 129.856 82.3554C127.83 78.8629 125.878 75.2716 124 71.5815H132.945C134 73.9537 135.136 76.3095 136.355 78.6488C137.574 80.9881 138.876 83.3273 140.26 85.6666ZM166.848 88.6813C166.848 90.3617 167.054 91.8773 167.466 93.2281C167.878 94.579 168.471 95.7404 169.245 96.7123C170.02 97.6843 170.967 98.4338 172.087 98.961C173.207 99.4882 174.492 99.7517 175.942 99.7517C177.359 99.7517 178.635 99.4882 179.772 98.961C180.909 98.4338 181.864 97.6843 182.639 96.7123C183.413 95.7404 184.006 94.579 184.418 93.2281C184.83 91.8773 185.035 90.3617 185.035 88.6813C185.035 87.001 184.83 85.4772 184.418 84.1099C184.006 82.7425 183.413 81.5729 182.639 80.6009C181.864 79.629 180.909 78.8794 179.772 78.3523C178.635 77.8251 177.359 77.5615 175.942 77.5615C174.492 77.5615 173.207 77.8333 172.087 78.377C170.967 78.9206 170.02 79.6784 169.245 80.6504C168.471 81.6223 167.878 82.7919 167.466 84.1593C167.054 85.5266 166.848 87.034 166.848 88.6813ZM192.992 88.6813C192.992 91.6137 192.556 94.1918 191.683 96.4158C190.81 98.6398 189.615 100.501 188.1 102C186.584 103.5 184.78 104.628 182.688 105.386C180.596 106.144 178.347 106.522 175.942 106.522C173.603 106.522 171.395 106.144 169.319 105.386C167.244 104.628 165.432 103.5 163.883 102C162.335 100.501 161.116 98.6398 160.226 96.4158C159.336 94.1918 158.892 91.6137 158.892 88.6813C158.892 85.749 159.353 83.1708 160.275 80.9469C161.198 78.7229 162.442 76.8531 164.007 75.3375C165.572 73.822 167.384 72.6853 169.443 71.9275C171.502 71.1697 173.669 70.7908 175.942 70.7908C178.281 70.7908 180.489 71.1697 182.564 71.9275C184.64 72.6853 186.452 73.822 188.001 75.3375C189.549 76.8531 190.768 78.7229 191.658 80.9469C192.548 83.1708 192.992 85.749 192.992 88.6813ZM212.81 106.522C210.405 106.522 208.329 106.185 206.583 105.509C204.837 104.834 203.396 103.895 202.259 102.692C201.122 101.49 200.282 100.057 199.738 98.3927C199.195 96.7288 198.923 94.892 198.923 92.8822V71.5815H206.633V92.2397C206.633 93.6235 206.789 94.8014 207.102 95.7733C207.415 96.7453 207.843 97.536 208.387 98.1455C208.931 98.7551 209.59 99.1916 210.364 99.4552C211.138 99.7188 211.987 99.8506 212.909 99.8506C214.787 99.8506 216.311 99.274 217.481 98.1208C218.65 96.9677 219.235 95.0073 219.235 92.2397V71.5815H226.945V92.8822C226.945 94.892 226.665 96.737 226.105 98.4174C225.545 100.098 224.688 101.539 223.535 102.742C222.382 103.944 220.915 104.875 219.136 105.534C217.357 106.193 215.248 106.522 212.81 106.522ZM244.391 71.1861C249.53 71.1861 253.468 72.1004 256.202 73.929C258.937 75.7576 260.304 78.5994 260.304 82.4542C260.304 84.8594 259.752 86.8116 258.649 88.3107C257.545 89.8098 255.955 90.9877 253.88 91.8443C254.571 92.701 255.296 93.6811 256.054 94.7849C256.812 95.8886 257.561 97.0418 258.303 98.2444C259.044 99.447 259.761 100.699 260.453 102C261.145 103.302 261.787 104.579 262.38 105.831H253.731C253.105 104.71 252.471 103.574 251.829 102.421C251.186 101.267 250.527 100.147 249.852 99.0598C249.176 97.9726 248.509 96.943 247.85 95.971C247.191 94.999 246.532 94.1177 245.873 93.327H242.068V105.831H234.358V72.0757C236.038 71.7463 237.776 71.5156 239.572 71.3838C241.368 71.252 242.974 71.1861 244.391 71.1861ZM244.835 77.7592C244.275 77.7592 243.773 77.7757 243.328 77.8086C242.883 77.8416 242.463 77.8745 242.068 77.9075V87.1987H244.242C247.142 87.1987 249.217 86.8363 250.47 86.1114C251.722 85.3866 252.348 84.151 252.348 82.4048C252.348 80.7245 251.713 79.5301 250.445 78.8218C249.176 78.1134 247.307 77.7592 244.835 77.7592ZM290.6 106.275C288.722 106.275 286.852 106.218 284.99 106.102C283.129 105.987 281.193 105.715 279.183 105.287V72.0757C280.765 71.7792 282.495 71.5568 284.373 71.4085C286.251 71.2603 287.997 71.1861 289.611 71.1861C291.786 71.1861 293.787 71.3426 295.616 71.6556C297.445 71.9686 299.018 72.504 300.336 73.2618C301.654 74.0196 302.683 75.0163 303.425 76.2518C304.166 77.4874 304.537 79.0112 304.537 80.8233C304.537 83.558 303.219 85.7161 300.583 87.2975C302.757 88.1212 304.24 89.2414 305.031 90.6582C305.822 92.0749 306.217 93.6729 306.217 95.4521C306.217 99.0434 304.907 101.745 302.288 103.557C299.669 105.369 295.772 106.275 290.6 106.275ZM286.695 90.9053V99.7517C287.256 99.8176 287.865 99.8671 288.524 99.9C289.183 99.933 289.908 99.9494 290.699 99.9494C293.005 99.9494 294.866 99.62 296.283 98.961C297.7 98.302 298.408 97.083 298.408 95.3038C298.408 93.7223 297.815 92.5939 296.629 91.9184C295.443 91.243 293.746 90.9053 291.539 90.9053H286.695ZM286.695 85.0241H290.451C292.824 85.0241 294.52 84.7194 295.542 84.1099C296.563 83.5003 297.074 82.5201 297.074 81.1693C297.074 79.7855 296.547 78.8135 295.492 78.2534C294.438 77.6933 292.89 77.4132 290.847 77.4132C290.188 77.4132 289.48 77.4215 288.722 77.438C287.964 77.4544 287.288 77.4956 286.695 77.5615V85.0241ZM335.326 105.831C334.964 104.644 334.56 103.425 334.115 102.173C333.671 100.921 333.234 99.6694 332.806 98.4174H319.462C319.034 99.6694 318.597 100.921 318.152 102.173C317.707 103.425 317.304 104.644 316.941 105.831H308.935C310.22 102.14 311.439 98.7304 312.592 95.6003C313.745 92.4703 314.874 89.5215 315.978 86.7539C317.081 83.9863 318.169 81.3587 319.239 78.8712C320.31 76.3836 321.422 73.9537 322.575 71.5815H329.939C331.059 73.9537 332.163 76.3836 333.25 78.8712C334.338 81.3587 335.433 83.9863 336.537 86.7539C337.641 89.5215 338.769 92.4703 339.922 95.6003C341.076 98.7304 342.295 102.14 343.58 105.831H335.326ZM326.084 79.3407C325.92 79.8349 325.672 80.5103 325.343 81.367C325.014 82.2236 324.635 83.212 324.206 84.3322C323.778 85.4525 323.308 86.688 322.798 88.0389C322.287 89.3897 321.768 90.8065 321.241 92.2891H330.977C330.45 90.8065 329.939 89.3897 329.445 88.0389C328.951 86.688 328.481 85.4525 328.036 84.3322C327.592 83.212 327.205 82.2236 326.875 81.367C326.546 80.5103 326.282 79.8349 326.084 79.3407ZM364.732 77.5121C361.141 77.5121 358.546 78.5088 356.948 80.5021C355.35 82.4954 354.551 85.2218 354.551 88.6813C354.551 90.3617 354.749 91.8855 355.144 93.2528C355.54 94.6201 356.133 95.798 356.923 96.7865C357.714 97.7749 358.702 98.5409 359.889 99.0846C361.075 99.6282 362.459 99.9 364.04 99.9C364.897 99.9 365.63 99.8835 366.239 99.8506C366.849 99.8176 367.384 99.7517 367.845 99.6529V87.7423H375.555V104.694C374.633 105.056 373.15 105.443 371.107 105.855C369.065 106.267 366.544 106.473 363.546 106.473C360.976 106.473 358.645 106.078 356.553 105.287C354.46 104.496 352.673 103.343 351.19 101.827C349.708 100.312 348.563 98.4503 347.756 96.2428C346.948 94.0353 346.545 91.5148 346.545 88.6813C346.545 85.8149 346.99 83.2779 347.879 81.0704C348.769 78.8629 349.988 76.9932 351.536 75.4611C353.085 73.929 354.905 72.7676 356.997 71.9769C359.09 71.1861 361.322 70.7908 363.694 70.7908C365.308 70.7908 366.766 70.8979 368.068 71.112C369.369 71.3262 370.49 71.5733 371.429 71.8533C372.368 72.1334 373.142 72.4217 373.751 72.7182C374.361 73.0147 374.797 73.2454 375.061 73.4101L372.837 79.5878C371.783 79.0277 370.572 78.5417 369.205 78.1299C367.837 77.718 366.346 77.5121 364.732 77.5121ZM392.062 99.9494C393.149 99.9494 394.047 99.8588 394.755 99.6776C395.464 99.4964 396.032 99.2493 396.46 98.9363C396.889 98.6233 397.185 98.2526 397.35 97.8243C397.515 97.396 397.597 96.9182 397.597 96.3911C397.597 95.2709 397.07 94.3401 396.016 93.5988C394.961 92.8574 393.149 92.0585 390.579 91.2018C389.459 90.8065 388.339 90.3534 387.219 89.8427C386.098 89.3321 385.094 88.6896 384.204 87.9153C383.314 87.141 382.59 86.202 382.029 85.0983C381.469 83.9945 381.189 82.6519 381.189 81.0704C381.189 79.4889 381.486 78.064 382.079 76.7955C382.672 75.527 383.512 74.448 384.599 73.5584C385.687 72.6688 387.005 71.9851 388.553 71.5074C390.102 71.0296 391.848 70.7908 393.792 70.7908C396.098 70.7908 398.091 71.0379 399.772 71.5321C401.452 72.0263 402.836 72.5699 403.923 73.163L401.699 79.2418C400.744 78.7476 399.681 78.3111 398.511 77.9322C397.342 77.5533 395.933 77.3638 394.286 77.3638C392.441 77.3638 391.115 77.6192 390.308 78.1299C389.5 78.6405 389.097 79.4231 389.097 80.4774C389.097 81.1034 389.245 81.6305 389.541 82.0589C389.838 82.4872 390.258 82.8743 390.802 83.2203C391.345 83.5662 391.971 83.8792 392.68 84.1593C393.388 84.4393 394.171 84.7276 395.027 85.0241C396.806 85.6831 398.355 86.3338 399.673 86.9763C400.991 87.6188 402.086 88.3683 402.959 89.225C403.833 90.0816 404.483 91.0865 404.912 92.2397C405.34 93.3929 405.554 94.7931 405.554 96.4405C405.554 99.6364 404.434 102.116 402.193 103.878C399.953 105.641 396.576 106.522 392.062 106.522C390.546 106.522 389.179 106.432 387.96 106.251C386.741 106.069 385.662 105.847 384.723 105.583C383.784 105.32 382.977 105.04 382.301 104.743C381.626 104.447 381.057 104.167 380.596 103.903L382.771 97.7749C383.792 98.335 385.052 98.8374 386.551 99.2822C388.051 99.727 389.887 99.9494 392.062 99.9494Z" fill="white"/>
</svg>
